<?xml version="1.0" encoding="UTF-8" standalone="no"?>
<!-- Created with Inkscape (http://www.inkscape.org/) -->

<svg
   xmlns:dc="http://purl.org/dc/elements/1.1/"
   xmlns:cc="http://creativecommons.org/ns#"
   xmlns:rdf="http://www.w3.org/1999/02/22-rdf-syntax-ns#"
   xmlns:svg="http://www.w3.org/2000/svg"
   xmlns="http://www.w3.org/2000/svg"
   xmlns:sodipodi="http://sodipodi.sourceforge.net/DTD/sodipodi-0.dtd"
   xmlns:inkscape="http://www.inkscape.org/namespaces/inkscape"
   width="110mm"
   height="20mm"
   viewBox="0 0 110 20"
   version="1.1"
   id="svg2703"
   inkscape:version="0.92.3 (2405546, 2018-03-11)"
   sodipodi:docname="logo-large.svg"
   inkscape:export-filename="/home/yannick/parselmouth/etc/logo/logo-large.png"
   inkscape:export-xdpi="127"
   inkscape:export-ydpi="127">
  <defs
     id="defs2697" />
  <sodipodi:namedview
     id="base"
     pagecolor="#ffffff"
     bordercolor="#666666"
     borderopacity="1.0"
     inkscape:pageopacity="0.0"
     inkscape:pageshadow="2"
     inkscape:zoom="3.959798"
     inkscape:cx="99.272984"
     inkscape:cy="39.892103"
     inkscape:document-units="mm"
     inkscape:current-layer="layer1"
     showgrid="false"
     inkscape:window-width="1853"
     inkscape:window-height="1025"
     inkscape:window-x="67"
     inkscape:window-y="27"
     inkscape:window-maximized="1" />
  <metadata
     id="metadata2700">
    <rdf:RDF>
      <cc:Work
         rdf:about="">
        <dc:format>image/svg+xml</dc:format>
        <dc:type
           rdf:resource="http://purl.org/dc/dcmitype/StillImage" />
        <dc:title />
      </cc:Work>
    </rdf:RDF>
  </metadata>
  <g
     inkscape:label="Layer 1"
     inkscape:groupmode="layer"
     id="layer1"
     transform="translate(0,-277)">
    <g
       transform="matrix(0.26458333,0,0,0.26458333,62.248735,152.68058)"
       id="g1935">
      <g
         id="g1272-5-7"
         transform="matrix(0.83851868,0,0,0.83851868,-98.976101,440.2768)">
        <g
           style="fill:#ffffff"
           id="g943-6-5-4-7"
           transform="translate(-141.6893,31.294264)">
          <path
             style="opacity:1;vector-effect:none;fill:#ffffff;fill-opacity:1;stroke:none;stroke-width:2.26771665;stroke-linecap:square;stroke-linejoin:miter;stroke-miterlimit:4;stroke-dasharray:none;paint-order:fill markers stroke"
             d="m 57.084565,22.777581 c -1.05,0 -2.124805,0.274023 -3.0625,0.761718 -0.937695,0.487696 -1.738281,1.189063 -2.238281,2.039063 0.9,0.3 1.801562,0.6 2.601562,1 0.6,0.2 1.09961,0.399219 1.59961,0.699219 0,-0.45 0.150293,-0.850586 0.40039,-1.150391 0.250098,-0.299805 0.6,-0.498828 1,-0.548828 0.45,-0.1 0.900391,0.02451 1.25,0.287109 0.34961,0.262598 0.598438,0.663282 0.648438,1.113281 0.05,0.350001 -0.02344,0.700196 -0.185547,1 -0.162109,0.299805 -0.412891,0.549219 -0.712891,0.699219 l 0.199219,0.201172 c 1.1,0.8 2.000781,1.69961 2.800781,2.599609 0.5,-0.449999 0.875,-0.999609 1.125,-1.599609 0.25,-0.6 0.375,-1.250391 0.375,-1.900391 0,-0.724999 -0.161255,-1.413561 -0.455078,-2.037109 -0.293823,-0.623547 -0.719043,-1.181494 -1.24414,-1.650391 -0.525098,-0.468896 -1.15188,-0.848327 -1.845704,-1.109374 -0.693823,-0.261048 -1.455859,-0.404297 -2.255859,-0.404297 z"
             id="path1015-9-7-0-7-1"
             inkscape:connector-curvature="0" />
          <path
             style="opacity:1;vector-effect:none;fill:#ffffff;fill-opacity:1;stroke:none;stroke-width:2.26771665;stroke-linecap:square;stroke-linejoin:miter;stroke-miterlimit:4;stroke-dasharray:none;paint-order:fill markers stroke"
             d="m 44.283784,22.478752 c -0.825,0 -1.612891,0.167969 -2.330078,0.472657 -0.717188,0.304687 -1.3625,0.745312 -1.90625,1.289062 -0.54375,0.54375 -0.984375,1.191016 -1.289063,1.908203 -0.304687,0.717188 -0.474609,1.505078 -0.474609,2.330078 0,0.825001 0.169922,1.612891 0.474609,2.330079 0.304688,0.717187 0.745313,1.3625 1.289063,1.90625 0.54375,0.54375 1.189062,0.984375 1.90625,1.289062 0.717187,0.304688 1.505078,0.474609 2.330078,0.474609 0.825,0 1.612891,-0.169921 2.330078,-0.474609 0.717187,-0.304687 1.364453,-0.745312 1.908203,-1.289062 0.54375,-0.54375 0.984375,-1.189063 1.289063,-1.90625 0.304687,-0.717188 0.472656,-1.505078 0.472656,-2.330079 0,-0.824999 -0.167969,-1.61289 -0.472656,-2.330078 -0.304688,-0.717187 -0.745313,-1.364453 -1.289063,-1.908203 -0.54375,-0.54375 -1.191016,-0.984375 -1.908203,-1.289062 -0.717187,-0.304688 -1.505078,-0.472657 -2.330078,-0.472657 z"
             id="path1013-1-5-3-4-1"
             inkscape:connector-curvature="0" />
          <path
             style="opacity:1;vector-effect:none;fill:#ffffff;fill-opacity:1;stroke:none;stroke-width:2.26771665;stroke-linecap:square;stroke-linejoin:miter;stroke-miterlimit:4;stroke-dasharray:none;paint-order:fill markers stroke"
             d="m 58.267944,26.498004 c -0.282977,0 -0.425781,0.28343 -0.425781,0.566407 0,0.282977 0.283429,0.425781 0.566406,0.425781 0.282976,0 0.56727,-0.28343 0.425781,-0.566406 0,-0.282977 -0.28343,-0.425782 -0.566406,-0.425782 z"
             id="path938-3-6-4-5"
             inkscape:connector-curvature="0" />
        </g>
        <path
           style="opacity:1;vector-effect:none;fill:#d40000;fill-opacity:1;stroke:none;stroke-width:0.03125;stroke-linecap:butt;stroke-linejoin:round;stroke-miterlimit:4;stroke-dasharray:none;stroke-dashoffset:0;stroke-opacity:1"
           d="m -88.429694,94.297604 c -1.65271,-2.20533 -2.87052,-4.8262 -3.31604,-7.13648 -0.46108,-2.39101 -0.56215,-5.55791 -0.29587,-9.27061 0.0206,-0.28714 0.0479,-0.53895 0.0606,-0.55959 0.0177,-0.0286 0.36853,-0.003 1.48294,0.10649 0.80286,0.0792 1.46319,0.14821 1.4674,0.15334 0.004,0.005 -0.006,0.11481 -0.023,0.24371 -0.0451,0.34519 -0.0439,2.34019 0.002,2.89063 0.16368,1.97124 0.52166,3.62567 1.10329,5.09898 0.72056,1.8252 2.3363,4.41135 4.08314,6.53546 0.21317,0.25921 0.2727,0.34925 0.22003,0.33281 -0.18561,-0.0579 -1.07876,-0.48834 -1.50463,-0.72508 -0.88707,-0.49313 -1.55195,-0.9755 -2.09916,-1.52295 -0.37656,-0.37673 -0.59088,-0.65838 -0.8802,-1.15672 -0.34739,-0.59837 -0.55603,-0.92277 -0.56903,-0.88476 -0.007,0.0194 0.0107,0.26858 0.0385,0.55376 0.0278,0.28517 0.0656,0.79975 0.0841,1.1435 0.08,1.48769 0.2768,3.30697 0.46795,4.32602 0.0336,0.17931 0.0557,0.33147 0.049,0.33814 -0.007,0.007 -0.17358,-0.20333 -0.37092,-0.46665 z"
           id="path860-7-3-0-3-9"
           inkscape:connector-curvature="0" />
        <g
           id="g1257-0-7">
          <path
             inkscape:connector-curvature="0"
             id="path878-7-6-7-7"
             d="m -107.97258,113.15649 c -0.89935,-0.0709 -1.76996,-0.15901 -1.93469,-0.19574 l -0.2995,-0.0668 -0.28868,-1.28064 c -0.92568,-4.10655 -2.5208,-8.22931 -4.40797,-11.39286 -2.28274,-3.826656 -3.80038,-7.622896 -4.56141,-11.409936 -0.70269,-3.49675 -0.80972,-7.20443 -0.29853,-10.34185 0.32717,-2.00803 1.34089,-5.35203 2.21841,-7.31796 1.89028,-4.23485 5.15857,-7.98864 8.95941,-10.29032 1.37622,-0.8334 3.65194,-1.85936 4.54625,-2.04957 l 0.26516,-0.0564 0.002,1.17297 c 0.002,0.9851 0.0348,1.27207 0.20648,1.79169 0.37384,1.13126 0.78431,1.79385 1.64486,2.65519 1.31471,1.31593 2.696046,1.89681 4.510606,1.89681 1.81579,0 3.19877,-0.58071 4.51311,-1.89505 0.91665,-0.91665 1.42841,-1.78879 1.72105,-2.93301 0.3322,-1.2989 0.17743,-3.14128 -0.35089,-4.17688 -0.10022,-0.19645 -0.18222,-0.37651 -0.18222,-0.40013 0,-0.0236 0.20881,0.0186 0.46403,0.0938 2.38712,0.70361 5.68432,2.24339 7.37569,3.44442 1.49184,1.05935 3.04868,2.56382 3.90302,3.77172 0.50856,0.71902 1.28033,2.32206 1.51932,3.15577 0.23431,0.81741 0.33199,2.70379 0.184,3.55361 -0.21876,1.25622 -0.77712,2.57203 -1.64401,3.87419 -0.54418,0.81743 -0.59051,0.86198 -1.08087,1.03945 -6.03026,2.18245 -13.84995,1.38115 -18.79578,-1.92606 -1.574826,-1.05307 -2.888626,-2.41313 -3.655226,-3.78395 l -0.32327,-0.57805 0.33839,-0.29252 c 0.18611,-0.16088 0.4718,-0.31754 0.63486,-0.34813 0.2544,-0.0477 0.29647,-0.0915 0.29647,-0.30873 0,-0.23788 -0.0173,-0.24983 -0.28726,-0.19838 -0.80293,0.15301 -1.54779,0.80716 -2.04047,1.79198 -0.17816,0.35612 -0.32392,0.69716 -0.32392,0.75789 0,0.1765 0.44746,0.22458 0.50059,0.0538 0.11207,-0.36024 0.33242,-0.81616 0.436,-0.90212 0.0871,-0.0723 0.15915,-0.005 0.30735,0.28777 0.94798,1.87182 3.16666,3.84576 5.694536,5.06639 1.23146,0.59463 3.06369,1.21768 4.52276,1.53796 l 1.1341,0.24894 -0.0237,1.18388 c -0.013,0.65113 -0.0457,1.46659 -0.0727,1.81213 l -0.049,0.62827 -0.72712,0.0559 c -0.97041,0.0746 -3.19912,-0.0737 -4.56236,-0.30353 -3.614166,-0.60937 -6.422876,-2.09311 -9.446026,-4.99002 -0.9915,-0.95009 -0.99571,-0.95289 -1.16997,-0.77863 -0.17426,0.17426 -0.1705,0.17917 1.04366,1.36479 0.6702,0.65445 1.58646,1.4639 2.03614,1.79879 0.44968,0.33488 0.81759,0.62107 0.81759,0.63597 0,0.0149 -0.10209,0.25693 -0.22686,0.53784 -0.29647,0.66745 -0.61456,1.77048 -0.80401,2.78801 -0.20835,1.11911 -0.21183,3.77237 -0.006,4.88729 0.5209,2.82712 2.40273,6.28666 6.910626,12.70445 0.81241,1.156616 1.73625,2.528846 2.05296,3.049396 1.17509,1.93136 2.87003,5.55751 4.05743,8.68044 l 0.55452,1.45841 -1.38567,0.0677 c -0.76212,0.0372 -2.85734,0.14859 -4.65605,0.24748 -4.434296,0.24381 -7.705566,0.28472 -9.766906,0.12215 z"
             style="opacity:1;vector-effect:none;fill:#5aa02c;fill-opacity:1;stroke:#000000;stroke-width:0;stroke-linecap:butt;stroke-linejoin:round;stroke-miterlimit:4;stroke-dasharray:none;stroke-dashoffset:0;stroke-opacity:1" />
          <path
             inkscape:connector-curvature="0"
             id="path880-5-3-8-6"
             d="m -88.703924,78.621004 v -1.18544 l 1.25954,-0.0558 c 1.14845,-0.0509 2.86987,-0.2363 3.48723,-0.37564 0.13595,-0.0307 -0.17259,0.1975 -0.68563,0.50707 -0.51304,0.30957 -1.17709,0.74648 -1.47565,0.97091 -0.49732,0.37385 -1.90897,1.12199 -2.38661,1.26485 l -0.19888,0.0595 z"
             style="opacity:1;vector-effect:none;fill:#5aa02c;fill-opacity:1;stroke:#000000;stroke-width:0;stroke-linecap:butt;stroke-linejoin:round;stroke-miterlimit:4;stroke-dasharray:none;stroke-dashoffset:0;stroke-opacity:1" />
        </g>
        <g
           id="g1240-6-7">
          <path
             d="m -97.304734,61.260014 c 1.26397,0 2.3875,-1.12353 2.3875,-2.3875 0,-1.26397 -1.12353,-2.3875 -2.3875,-2.3875 -1.26397,0 -2.3875,1.12353 -2.3875,2.3875 0,1.40441 1.12353,2.3875 2.3875,2.3875 z m 0.84265,-3.0897 c 0.28088,0 0.56176,0.28088 0.56176,0.56176 0,0.28088 -0.28088,0.56177 -0.56176,0.56177 -0.28088,0 -0.56177,-0.28089 -0.56177,-0.56177 0,-0.28088 0.28089,-0.56176 0.56177,-0.56176 z"
             id="path6-2-1-8-3"
             inkscape:connector-curvature="0"
             style="stroke:#000000;stroke-width:0;stroke-miterlimit:4;stroke-dasharray:none" />
          <path
             inkscape:connector-curvature="0"
             d="m -83.421144,57.792474 c 0.28298,0 0.56651,0.14259 0.56651,0.42557 0.14149,0.28298 -0.1426,0.5665 -0.42557,0.5665 -0.28298,0 -0.56651,-0.14259 -0.56651,-0.42557 0,-0.28297 0.1426,-0.5665 0.42557,-0.5665 z m 0.42557,2.82976 c 0.84893,-0.42446 1.41268,-1.41377 1.27119,-2.40419 -0.14149,-1.27339 -1.41268,-2.26437 -2.68607,-1.98139 -1.1319,0.14149 -1.98139,1.1308 -1.98139,2.4042 z"
             style="opacity:1;vector-effect:none;fill:#000000;fill-opacity:1;stroke:#000000;stroke-width:0;stroke-linecap:butt;stroke-linejoin:round;stroke-miterlimit:4;stroke-dasharray:none;stroke-dashoffset:0;stroke-opacity:1"
             id="path926-9-2-8-6" />
          <path
             style="color:#000000;font-style:normal;font-variant:normal;font-weight:normal;font-stretch:normal;font-size:medium;line-height:normal;font-family:sans-serif;font-variant-ligatures:normal;font-variant-position:normal;font-variant-caps:normal;font-variant-numeric:normal;font-variant-alternates:normal;font-feature-settings:normal;text-indent:0;text-align:start;text-decoration:none;text-decoration-line:none;text-decoration-style:solid;text-decoration-color:#000000;letter-spacing:normal;word-spacing:normal;text-transform:none;writing-mode:lr-tb;direction:ltr;text-orientation:mixed;dominant-baseline:auto;baseline-shift:baseline;text-anchor:start;white-space:normal;shape-padding:0;clip-rule:nonzero;display:inline;overflow:visible;visibility:visible;opacity:1;isolation:auto;mix-blend-mode:normal;color-interpolation:sRGB;color-interpolation-filters:linearRGB;solid-color:#000000;solid-opacity:1;vector-effect:none;fill:#000000;fill-opacity:1;fill-rule:nonzero;stroke:none;stroke-width:2.26771665;stroke-linecap:butt;stroke-linejoin:round;stroke-miterlimit:4;stroke-dasharray:none;stroke-dashoffset:0;stroke-opacity:1;color-rendering:auto;image-rendering:auto;shape-rendering:auto;text-rendering:auto;enable-background:accumulate"
             d="m -104.42238,57.259564 c -2.13398,0.58828 -12.05185,3.85888 -16.06836,17.08398 -4.05393,13.20442 2.70683,24.18742 4.81055,27.742186 0.16359,0.27643 0.42327,0.8675 0.64648,1.33008 0.003,0.006 0.005,0.0116 0.008,0.0176 v 0.002 c 0.43117,0.89082 0.81923,1.76076 1.16407,2.61328 2.1e-4,5.3e-4 -2.2e-4,0.001 0,0.002 0.34476,0.85243 0.64771,1.68649 0.91406,2.50195 1.8e-4,5.6e-4 -1.8e-4,0.001 0,0.002 0.26628,0.81538 0.49758,1.61287 0.69336,2.39258 1.5e-4,5.9e-4 -1.5e-4,0.001 0,0.002 0.19571,0.77964 0.35711,1.54183 0.49023,2.28711 1.1e-4,6.1e-4 -1.1e-4,0.001 0,0.002 l 0.16602,0.93359 h 0.94922 0.41211 1.37304 l -0.25781,-1.3457 c -0.26597,-1.38985 -0.61938,-2.83921 -1.05859,-4.32618 -0.0718,-0.24288 -0.12558,-0.4772 -0.20313,-0.72265 -0.13769,-0.43618 -0.28587,-0.87606 -0.44336,-1.32031 -2e-4,-5.7e-4 2e-4,-0.001 0,-0.002 -0.15772,-0.44486 -0.3264,-0.89276 -0.50586,-1.3457 -0.3591,-0.90606 -0.76354,-1.82758 -1.2207,-2.76563 -0.15948,-0.32723 -0.38837,-0.98898 -0.78711,-1.63281 -1.41558,-2.285706 -4.40129,-7.150516 -5.3418,-13.697256 -0.73478,-5.11478 -0.18838,-8.47233 0.81055,-11.81641 0.35772,-1.028 0.59391,-1.82957 0.91992,-2.69141 9.5e-4,-0.002 0.003,-0.004 0.004,-0.006 3.43122,-8.29228 9.3302,-11.23726 12.08984,-12.23242 0.21946,3.93672 3.46422,7.14063 7.451176,7.14063 4.1264,0 7.53515,-3.40875 7.53515,-7.53516 0,-0.50357 -0.26605,-0.92434 -0.36328,-1.4082 0.17583,0.0642 0.34916,0.10237 0.5293,0.16992 h 0.002 c 0.0629,0.0403 0.12963,0.0743 0.19922,0.10156 2.29006,0.85878 4.17028,1.8943 5.76562,3.10742 l 0.23243,0.23243 c 0.0945,0.0941 0.20497,0.17081 0.32617,0.22656 0.60004,0.58945 1.21959,1.13409 1.70703,1.70117 1.45731,1.73056 2.23437,3.67759 2.23437,5.56836 0,1.61726 -0.66579,3.37758 -1.99804,5.13281 -2.34933,0.85654 -4.69504,1.23438 -7.16992,1.23438 -6.2489,0 -11.58063,-2.64807 -13.740236,-6.0918 0.46251,-0.15417 0.77472,-0.5867 0.77539,-1.07422 v -0.40039 c -6.4e-4,-0.62613 -0.50863,-1.13325 -1.13476,-1.13281 -0.10296,0 -1.49787,0.0992 -2.54688,1.2793 l -0.0527,0.0527 c -0.038,0.0378 -0.0732,0.0783 -0.10547,0.12109 -0.35365,0.47153 -0.74103,1.11705 -0.98438,1.96875 -0.17508,0.61628 0.19478,1.25513 0.81641,1.41016 l 0.40039,0.0996 c 0.33184,0.0832 0.68352,0.0122 0.95703,-0.19336 2.33045,3.25312 6.480256,5.49923 11.416016,6.31055 l 0.008,0.002 c 0.003,5.5e-4 0.006,0.001 0.01,0.002 l 0.38282,0.0684 c 0.0503,0.009 0.10122,0.0152 0.15234,0.0176 l 3,0.12305 c 0.0111,8.3e-4 0.0221,0.002 0.0332,0.002 l 0.30079,0.004 c 0.005,3e-5 0.009,3e-5 0.0137,0 h 0.29883 c 0.0517,0 0.0987,-0.0153 0.15039,-0.0156 -0.13272,0.061 -0.55032,0.29282 -0.58594,0.30469 -0.46319,0.15439 -0.77556,0.58792 -0.77539,1.07617 v 0.19922 c 6.1e-4,0.84238 0.88699,1.39004 1.64062,1.01367 -0.13453,0.0673 0.24973,-0.083 0.6836,-0.27929 0.43387,-0.19632 1.0226,-0.50156 1.76757,-0.98047 0.0331,-0.0211 0.065,-0.044 0.0957,-0.0684 1.77445,-1.41957 5.01775,-2.78256 5.36914,-2.90235 0.0845,-0.004 0.15032,6.8e-4 0.3125,-0.0801 0.13994,-0.0697 0.29726,-0.22816 0.42578,-0.41601 l -0.0176,0.0488 c 1.85206,-2.17889 2.76953,-4.67145 2.76953,-7.23438 0,-2.03967 -0.82799,-4.15508 -2.21289,-6.07031 0.83746,-1.11539 1.41211,-2.42159 1.41211,-3.83008 0,-3.78256 -3.37826,-6.73242 -7.33398,-6.73242 -2.37744,0 -4.5838,1.09916 -5.99805,2.84766 -0.29252,-0.0906 -0.58015,-0.1779 -0.89844,-0.2461 -1.40497,-1.71531 -2.97596,-2.902345 -5.80385,-2.90248 -2.827876,-1.35e-4 -5.977386,2.15377 -7.017246,5.0194 z m 7.015626,-2.35156 c 2.68153,0 4.86718,2.1837 4.86718,4.86523 0,2.68153 -2.18565,4.86719 -4.86718,4.86719 -2.681536,0 -4.865236,-2.18566 -4.865236,-4.86719 0,-2.68153 2.1837,-4.86523 4.865236,-4.86523 z m 12.80078,0.29883 c 2.65641,0 4.66797,1.84431 4.66796,4.0664 0,0.65173 -0.21825,1.25728 -0.53124,1.8086 -0.58813,-0.59382 -1.13932,-1.19675 -1.87305,-1.74805 l -0.15625,-0.1582 c -0.0698,-0.0705 -0.14864,-0.13162 -0.23438,-0.18164 l -2.38867,-1.39454 c -0.56448,-0.33869 -1.13084,-0.55676 -1.72851,-0.75976 -0.31843,-0.15704 -0.6434,-0.24653 -0.96875,-0.375 0.91139,-0.70628 2.03466,-1.25781 3.21289,-1.25781 z m 1.85546,7.19921 c 0.003,10e-6 0.005,10e-6 0.008,0 0.0109,0.004 0.0142,0.009 0.0234,0.0137 z m -25.710926,11.13477 c -0.2813,0.0142 -0.54727,0.13253 -0.7461,0.33203 l -0.29882,0.29883 c -0.43464,0.4344 -0.44418,1.13597 -0.0215,1.58203 l 0.8457,0.89063 c 0.007,0.007 0.0142,0.0144 0.0215,0.0215 0.57065,0.57065 1.63733,1.45777 2.73828,2.27539 -0.64426,1.42287 -1.54266,4.08033 -0.90234,8.01367 0.69329,4.3805 4.69442,9.77555 7.291006,13.470706 0.70812,1.01154 1.29371,1.8039 1.63672,2.40234 0.001,0.002 0.005,0.005 0.006,0.008 0.01,0.0172 0.0204,0.0341 0.0312,0.0508 v 0.002 c 0.21934,0.34129 0.52574,0.87181 0.88672,1.55078 3.4e-4,6.4e-4 -3.4e-4,0.001 0,0.002 0.36116,0.67936 0.77964,1.50513 1.21875,2.4375 2.8e-4,6e-4 -2.8e-4,0.001 0,0.002 0.43918,0.93259 0.90212,1.96958 1.35547,3.07032 2.4e-4,5.8e-4 -2.4e-4,0.001 0,0.002 0.22656,0.55014 0.45177,1.11516 0.66992,1.69141 2.2e-4,5.7e-4 -2.2e-4,0.001 0,0.002 0.21814,0.57627 0.42911,1.1641 0.63086,1.75586 2e-4,5.8e-4 -2e-4,0.001 0,0.002 l 0.26172,0.76758 h 0.81054 0.46875 1.57618 l -0.5,-1.49414 c -0.18432,-0.54996 -0.37154,-1.08393 -0.5586,-1.5918 l -0.002,-0.004 c -2.2e-4,-5.9e-4 2.1e-4,-0.001 0,-0.002 -0.40761,-1.12053 -0.83671,-2.19915 -1.26758,-3.20898 -3.6e-4,-8.5e-4 -0.002,-10e-4 -0.002,-0.002 -0.23486,-0.55038 -0.46322,-1.02103 -0.69531,-1.52735 -0.19401,-0.42319 -0.39239,-0.89002 -0.58008,-1.27734 -0.41198,-0.85027 -0.80337,-1.60779 -1.1543,-2.25 -3.3e-4,-6e-4 3.3e-4,-0.001 0,-0.002 -0.35078,-0.64188 -0.66253,-1.1655 -0.91016,-1.55078 v -0.002 c -0.004,-0.005 -0.008,-0.0104 -0.0117,-0.0156 -0.002,-0.004 -0.007,-0.012 -0.01,-0.0156 l -0.86914,-1.291016 -0.004,0.006 c -0.28288,-0.41847 -0.48675,-0.73023 -0.83008,-1.2207 -0.003,-0.005 -0.007,-0.009 -0.01,-0.0137 -2.58604,-3.58067 -6.293436,-9.18977 -6.800776,-12.31836 -6.4e-4,-0.005 -0.001,-0.009 -0.002,-0.0137 -0.50379,-2.87885 0.15174,-4.99418 0.63477,-6.23242 0.74967,0.39165 1.48736,0.81482 2.25977,1.0957 0.0136,0.005 0.0273,0.009 0.041,0.0137 2.674906,0.85597 5.199196,0.95313 6.845706,0.95313 0.79963,0 1.30409,0.0646 1.97265,-0.15821 0.56385,-0.18801 0.88685,-0.77948 0.74024,-1.35547 l -0.0254,-0.0996 c -0.14095,-0.55435 -0.6727,-0.91695 -1.24024,-0.8457 -0.59351,0.0742 -3.92469,0.27247 -7.396476,-0.85351 -0.005,-0.001 -0.009,-0.003 -0.0137,-0.004 -3.74262,-1.15843 -7.18359,-4.96289 -7.18359,-4.96289 -0.2278,-0.26082 -0.5623,-0.40325 -0.9082,-0.38672 z m 7.40625,7.50977 c 10e-4,4.5e-4 0.002,-4.6e-4 0.004,0 0.004,0.001 0.007,0.004 0.0117,0.006 z m -5.36914,5.70312 c 2.1e-4,0.001 0.002,0.003 0.002,0.004 6e-4,0.004 -6e-4,0.006 0,0.01 z"
             id="rect829-2-9-22-0-4-5"
             inkscape:connector-curvature="0"
             sodipodi:nodetypes="cccccccccccccccccccccccccccccccssccccccccscsccccccccccccccccccccsccccccccccccscssccscssssssccccccccsccccccccccccccccccccccccccccccccccccccccccccccccccccccsccccccccccccccccc" />
          <path
             style="color:#000000;font-style:normal;font-variant:normal;font-weight:normal;font-stretch:normal;font-size:medium;line-height:normal;font-family:sans-serif;font-variant-ligatures:normal;font-variant-position:normal;font-variant-caps:normal;font-variant-numeric:normal;font-variant-alternates:normal;font-feature-settings:normal;text-indent:0;text-align:start;text-decoration:none;text-decoration-line:none;text-decoration-style:solid;text-decoration-color:#000000;letter-spacing:normal;word-spacing:normal;text-transform:none;writing-mode:lr-tb;direction:ltr;text-orientation:mixed;dominant-baseline:auto;baseline-shift:baseline;text-anchor:start;white-space:normal;shape-padding:0;clip-rule:nonzero;display:inline;overflow:visible;visibility:visible;opacity:1;isolation:auto;mix-blend-mode:normal;color-interpolation:sRGB;color-interpolation-filters:linearRGB;solid-color:#000000;solid-opacity:1;vector-effect:none;fill:#000000;fill-opacity:1;fill-rule:nonzero;stroke:none;stroke-width:1.13385832;stroke-linecap:butt;stroke-linejoin:round;stroke-miterlimit:4;stroke-dasharray:none;stroke-dashoffset:0;stroke-opacity:1;color-rendering:auto;image-rendering:auto;shape-rendering:auto;text-rendering:auto;enable-background:accumulate"
             d="m -92.431714,76.607644 a 0.56698586,0.56698586 0 0 0 -0.5293,0.45508 c -0.12381,0.61906 -0.20448,1.97314 -0.20703,3.75195 l -0.0117,0.0937 a 0.56698586,0.56698586 0 0 0 -0.004,0.0645 c 0,2.20186 3e-4,4.93613 0.63086,7.24805 a 0.56698586,0.56698586 0 0 0 0.004,0.008 c 1.3444,4.65366 4.34375,7.64453 4.34375,7.64453 a 0.56698586,0.56698586 0 0 0 0.71485,0.0703 l 0.29883,-0.19922 a 0.56698586,0.56698586 0 0 0 0.1289,-0.82617 c 0.0397,0.0497 -0.0909,-0.1973 -0.16992,-0.53516 -0.079,-0.33786 -0.15559,-0.78976 -0.22266,-1.29687 -0.0736,-0.55695 -0.10614,-1.20404 -0.15625,-1.83399 0.70839,0.61146 1.46189,1.13916 2.16993,1.50977 0.55829,0.29224 1.06775,0.51554 1.45117,0.67188 0.19171,0.0782 0.35226,0.13914 0.46875,0.18359 0.11649,0.0444 0.24034,0.10064 0.16406,0.0625 a 0.56698586,0.56698586 0 0 0 0.0742,0.0312 l 0.59961,0.19922 a 0.56698586,0.56698586 0 0 0 0.62109,-0.89258 l -0.40039,-0.5 a 0.56698586,0.56698586 0 0 0 -0.0195,-0.0215 c 0,0 -3.9431,-4.51363 -4.97656,-8.17774 a 0.56698586,0.56698586 0 0 0 -0.006,-0.0156 c -0.48269,-1.54461 -0.67188,-2.98838 -0.67188,-4.23046 v -0.19922 -2.5 a 0.56698586,0.56698586 0 0 0 -0.53711,-0.56641 l -3.70117,-0.19922 a 0.56698586,0.56698586 0 0 0 -0.0566,0 z m 0.96485,1.28711 1.88476,0.1875 c -0.10781,1.17413 -0.18821,3.80069 0.73438,6.84961 3.8e-4,10e-4 0.002,0.003 0.002,0.004 2.1e-4,6.9e-4 -2.1e-4,0.001 0,0.002 0.66801,2.29604 2.11281,4.45326 3.38867,6.16992 -0.9348,-0.58955 -1.82477,-1.31302 -2.23437,-2.17773 a 0.56698586,0.56698586 0 0 0 -0.0312,-0.0566 l -0.5,-0.80078 a 0.56698586,0.56698586 0 0 0 -1.04493,0.36328 l 0.0996,0.90039 c 0.003,0.34686 0.0501,1.20429 0.14844,2.29883 0.0285,0.31688 0.0945,0.6161 0.13086,0.94726 -0.75807,-1.19835 -1.54062,-2.64048 -2.07031,-4.46289 -0.98092,-3.57123 -0.63788,-8.65035 -0.50781,-10.22461 z"
             id="rect829-2-97-6-3-6"
             inkscape:connector-curvature="0" />
        </g>
      </g>
      <path
         d="m -225.17824,479.3194 h 13.01887 v 4.2239 h -7.98491 v 47.56227 h 7.98491 v 4.2239 h -13.01887 z"
         style="font-style:normal;font-variant:normal;font-weight:normal;font-stretch:normal;font-size:medium;line-height:1.25;font-family:Ubuntu;-inkscape-font-specification:Ubuntu;letter-spacing:0px;word-spacing:0px;fill:#000000;fill-opacity:1;stroke:none;stroke-width:1.44654107"
         id="path1342-27"
         inkscape:connector-curvature="0" />
      <path
         d="m -201.85865,480.72027 v 15.68029 h -3.84237 v -15.68029 z"
         style="font-style:normal;font-variant:normal;font-weight:normal;font-stretch:normal;font-size:medium;line-height:1.25;font-family:Ubuntu;-inkscape-font-specification:Ubuntu;letter-spacing:0px;word-spacing:0px;fill:#000000;fill-opacity:1;stroke:none;stroke-width:1.44654107"
         id="path1344-2"
         inkscape:connector-curvature="0" />
      <path
         d="m -133.51523,508.83177 q 0,-5.73531 -2.37323,-8.98438 -2.34499,-3.27732 -6.46988,-3.27732 -4.1249,0 -6.49814,3.27732 -2.37323,3.24907 -2.37323,8.98438 0,5.73531 2.37323,9.01264 2.37324,3.24906 6.49814,3.24906 4.12489,0 6.46988,-3.24906 2.37323,-3.27733 2.37323,-9.01264 z m -17.71448,-11.04682 q 1.63866,-2.82529 4.1249,-4.18142 2.5145,-1.38438 6.01784,-1.38438 5.73531,0 9.32341,4.57694 3.61635,4.57696 3.61635,12.03568 0,7.45873 -3.61635,12.03567 -3.5881,4.57695 -9.32341,4.57695 -3.50334,0 -6.01784,-1.35613 -2.48624,-1.38439 -4.1249,-4.20966 v 4.80297 h -5.1985 v -31.64309 h 5.1985 z"
         style="font-style:normal;font-variant:normal;font-weight:normal;font-stretch:normal;font-size:medium;line-height:1.25;font-family:Ubuntu;-inkscape-font-specification:Ubuntu;letter-spacing:0px;word-spacing:0px;fill:#000000;fill-opacity:1;stroke:none;stroke-width:1.44654107"
         id="path1348-2"
         inkscape:connector-curvature="0" />
      <path
         d="m -111.6476,519.70908 q -3.22081,5.67881 -10.65128,5.67881 -1.04536,0 -2.62752,-0.28253 l -0.0282,-5.33977 q 1.69517,0.98884 4.18141,0.98884 4.40742,0 6.75241,-2.85352 2.37323,-2.88179 2.37323,-8.24981 v -16.66912 h 5.22675 v 31.64309 h -5.22675 z"
         style="font-style:normal;font-variant:normal;font-weight:normal;font-stretch:normal;font-size:medium;line-height:1.25;font-family:Ubuntu;-inkscape-font-specification:Ubuntu;letter-spacing:0px;word-spacing:0px;fill:#000000;fill-opacity:1;stroke:none;stroke-width:1.44654107"
         id="path1350-6"
         inkscape:connector-curvature="0" />
      <path
         d="m -90.002599,521.50054 q 0,1.56226 -1.04151,2.7195 -1.041509,1.15723 -2.83522,1.15723 -1.793711,0 -2.835221,-1.15723 -1.04151,-1.15724 -1.04151,-2.7195 0,-1.56227 1.04151,-2.7195 1.04151,-1.15723 2.835221,-1.15723 1.793711,0 2.83522,1.15723 1.04151,1.15723 1.04151,2.7195 z"
         style="font-style:normal;font-variant:normal;font-weight:normal;font-stretch:normal;font-size:medium;line-height:1.25;font-family:Ubuntu;-inkscape-font-specification:Ubuntu;letter-spacing:0px;word-spacing:0px;fill:#000000;fill-opacity:1;stroke:none;stroke-width:1.44654107"
         id="path1352-1"
         inkscape:connector-curvature="0" />
      <path
         d="m -75.126732,520.74834 q 3.298113,0 4.860378,-0.86793 1.620126,-0.86792 1.620126,-2.77736 0,-1.96729 -1.562265,-3.12453 -1.562264,-1.15723 -5.149686,-2.60377 -1.735849,-0.69434 -3.355975,-1.38868 -1.562265,-0.7522 -2.719497,-1.73585 -1.157233,-0.98365 -1.851573,-2.37233 -0.69434,-1.38868 -0.69434,-3.41383 0,-3.99246 2.950944,-6.30692 2.950944,-2.37233 8.042769,-2.37233 1.272956,0 2.545912,0.17359 1.272956,0.11572 2.372327,0.34717 1.099372,0.17358 1.909435,0.40503 0.867924,0.23144 1.330817,0.40503 l -0.983648,4.62893 q -0.867924,-0.46289 -2.719497,-0.92579 -1.851572,-0.52075 -4.455346,-0.52075 -2.256605,0 -3.934592,0.92578 -1.677988,0.86793 -1.677988,2.77736 0,0.98365 0.34717,1.73585 0.405031,0.7522 1.157233,1.38868 0.810063,0.57862 1.967296,1.09937 1.157233,0.52076 2.777359,1.09938 2.14088,0.81006 3.818868,1.62012 1.677988,0.7522 2.835221,1.79371 1.215094,1.04151 1.851572,2.54591 0.636478,1.44655 0.636478,3.58743 0,4.16603 -3.124528,6.30692 -3.066668,2.14088 -8.79497,2.14088 -3.992454,0 -6.249058,-0.69434 -2.256604,-0.63648 -3.066667,-0.98365 l 0.983648,-4.62893 q 0.925786,0.34717 2.950944,1.04151 2.025157,0.69434 5.381133,0.69434 z"
         style="font-style:normal;font-variant:normal;font-weight:normal;font-stretch:normal;font-size:medium;line-height:1.25;font-family:Ubuntu;-inkscape-font-specification:Ubuntu;letter-spacing:0px;word-spacing:0px;fill:#000000;fill-opacity:1;stroke:none;stroke-width:1.44654107"
         id="path1354-0"
         inkscape:connector-curvature="0" />
      <path
         d="m -57.79785,510.15966 v -2.54276 h 23.901835 q -0.339026,-5.36802 -3.249061,-8.16505 -2.881785,-2.82527 -8.052041,-2.82527 -2.994789,0 -5.820071,0.73457 -2.797018,0.73457 -5.565784,2.20372 v -4.91598 q 2.797017,-1.18661 5.735304,-1.80818 2.938286,-0.62156 5.961326,-0.62156 7.571746,0 11.979168,4.40743 4.435688,4.40743 4.435688,11.92266 0,7.76951 -4.209666,12.34646 -4.1814,4.54869 -11.301102,4.54869 -6.385119,0 -10.114476,-4.09665 -3.70112,-4.1249 -3.70112,-11.18808 z m 5.198507,1.52563 q 0.05656,4.26617 2.373239,6.80892 2.344973,2.54275 6.187348,2.54275 4.350921,0 6.950182,-2.45799 2.627511,-2.45799 3.023039,-6.92193 z"
         style="font-style:normal;font-variant:normal;font-weight:normal;font-stretch:normal;font-size:medium;line-height:1.25;font-family:Ubuntu;-inkscape-font-specification:Ubuntu;letter-spacing:0px;word-spacing:0px;fill:#000000;fill-opacity:1;stroke:none;stroke-width:1.44654107"
         id="path1356-6"
         inkscape:connector-curvature="0" />
      <path
         d="m -11.736582,525.20368 q -4.976101,-0.11572 -7.05912,-2.14088 -2.08302,-2.02516 -2.08302,-6.30692 v -36.10566 l 5.381133,-0.92579 v 36.16353 q 0,1.33082 0.231447,2.19874 0.231447,0.86793 0.752201,1.38868 0.520755,0.52076 1.38868,0.81006 0.867924,0.23145 2.140881,0.40503 z"
         style="font-style:normal;font-variant:normal;font-weight:normal;font-stretch:normal;font-size:medium;line-height:1.25;font-family:Ubuntu;-inkscape-font-specification:Ubuntu;letter-spacing:0px;word-spacing:0px;fill:#000000;fill-opacity:1;stroke:none;stroke-width:1.44654107"
         id="path1358-1"
         inkscape:connector-curvature="0" />
      <path
         d="m 0.31806724,517.50536 v 15.68028 H -3.5243076 v -15.68028 z"
         style="font-style:normal;font-variant:normal;font-weight:normal;font-stretch:normal;font-size:medium;line-height:1.25;font-family:Ubuntu;-inkscape-font-specification:Ubuntu;letter-spacing:0px;word-spacing:0px;fill:#000000;fill-opacity:1;stroke:none;stroke-width:1.44654107"
         id="path1360-5"
         inkscape:connector-curvature="0" />
      <path
         d="m 10.993092,495.40494 q 1.851573,-0.4629 4.860378,-0.98365 3.066667,-0.52076 7.059121,-0.52076 2.893082,0 4.860378,0.81007 1.967296,0.7522 3.298114,2.2566 0.405031,-0.28931 1.272956,-0.81006 0.867924,-0.52076 2.140881,-0.98365 1.272956,-0.52075 2.83522,-0.86792 1.562265,-0.40504 3.355976,-0.40504 3.471698,0 5.670441,1.04151 2.198742,0.98365 3.413837,2.83522 1.272956,1.85158 1.677987,4.39749 0.462893,2.54591 0.462893,5.55472 v 16.8956 H 46.520142 V 508.8867 q 0,-2.66164 -0.289309,-4.57107 -0.231446,-1.90943 -0.983648,-3.18239 -0.694339,-1.27296 -1.967296,-1.85157 -1.215094,-0.63648 -3.18239,-0.63648 -2.719497,0 -4.513208,0.7522 -1.735849,0.69434 -2.372328,1.27296 0.462894,1.5044 0.69434,3.29811 0.231447,1.79371 0.231447,3.76101 v 16.8956 H 28.756617 V 508.8867 q 0,-2.66164 -0.289308,-4.57107 -0.289309,-1.90943 -1.04151,-3.18239 -0.69434,-1.27296 -1.967296,-1.85157 -1.215094,-0.63648 -3.124529,-0.63648 -0.810063,0 -1.735849,0.0579 -0.925786,0.0579 -1.793711,0.17359 -0.810063,0.0579 -1.504403,0.17358 -0.694339,0.11572 -0.925786,0.17358 v 25.40127 h -5.381133 z"
         style="font-style:normal;font-variant:normal;font-weight:normal;font-stretch:normal;font-size:medium;line-height:1.25;font-family:Ubuntu;-inkscape-font-specification:Ubuntu;letter-spacing:0px;word-spacing:0px;fill:#000000;fill-opacity:1;stroke:none;stroke-width:1.44654107"
         id="path1362-9"
         inkscape:connector-curvature="0" />
      <path
         d="m 71.01461,520.74834 q 1.909434,0 3.355975,-0.0579 1.504403,-0.11572 2.488051,-0.34716 v -8.96856 q -0.578616,-0.28931 -1.909434,-0.46289 -1.272956,-0.23145 -3.124529,-0.23145 -1.215094,0 -2.603774,0.17359 -1.330818,0.17358 -2.488051,0.7522 -1.099371,0.52075 -1.851572,1.5044 -0.752202,0.92579 -0.752202,2.48805 0,2.89308 1.851573,4.05032 1.851573,1.09937 5.033963,1.09937 z m -0.462893,-26.96353 q 3.240252,0 5.438994,0.86793 2.256605,0.81006 3.587422,2.37232 1.38868,1.50441 1.967296,3.64529 0.578617,2.08302 0.578617,4.62893 v 18.80503 q -0.69434,0.11573 -1.967296,0.34717 -1.215095,0.17359 -2.777359,0.34717 -1.562265,0.17359 -3.413837,0.28931 -1.793711,0.17358 -3.587422,0.17358 -2.545912,0 -4.686793,-0.52075 -2.140881,-0.52075 -3.703145,-1.62013 -1.562265,-1.15723 -2.430189,-3.0088 -0.867925,-1.85157 -0.867925,-4.45535 0,-2.48805 0.983648,-4.28176 1.041509,-1.79371 2.777359,-2.89308 1.735849,-1.09937 4.050315,-1.62013 2.314466,-0.52075 4.860378,-0.52075 0.810063,0 1.677988,0.11572 0.867924,0.0579 1.620126,0.23145 0.810063,0.11572 1.388679,0.23144 0.578617,0.11573 0.810063,0.17359 v -1.5044 q 0,-1.33082 -0.289308,-2.60378 -0.289308,-1.33082 -1.04151,-2.31446 -0.752201,-1.04151 -2.083019,-1.62013 -1.272956,-0.63648 -3.355975,-0.63648 -2.661636,0 -4.686793,0.40503 -1.967296,0.34717 -2.950944,0.7522 l -0.636478,-4.45534 q 1.041509,-0.46289 3.471698,-0.86793 2.430189,-0.46289 5.26541,-0.46289 z"
         style="font-style:normal;font-variant:normal;font-weight:normal;font-stretch:normal;font-size:medium;line-height:1.25;font-family:Ubuntu;-inkscape-font-specification:Ubuntu;letter-spacing:0px;word-spacing:0px;fill:#000000;fill-opacity:1;stroke:none;stroke-width:1.44654107"
         id="path1364-4"
         inkscape:connector-curvature="0" />
      <path
         d="m 119.03616,497.61542 h -6.66766 q 2.74052,2.0342 4.52044,5.36803 1.80818,3.30557 1.80818,7.59998 0,6.63941 -4.0119,10.76431 -4.01188,4.1249 -10.36875,4.1249 -6.356879,0 -10.368759,-4.1249 -4.011895,-4.1249 -4.011895,-10.76431 0,-4.29441 1.779925,-7.59998 1.808177,-3.33383 4.548692,-5.36803 h -6.695908 v -4.63344 h 12.487725 v 6.2156 q -2.881781,1.86468 -4.802976,4.91598 -1.92118,3.02304 -1.92118,6.95018 0,4.49218 2.486243,7.23271 2.486243,2.74051 6.554643,2.74051 4.06839,0 6.55464,-2.74051 2.48624,-2.74053 2.48624,-7.23271 0,-3.92714 -1.9212,-6.95018 -1.92118,-3.0513 -4.80296,-4.91598 l 0.0282,-6.2156 h 12.3182 z"
         style="font-style:normal;font-variant:normal;font-weight:normal;font-stretch:normal;font-size:medium;line-height:1.25;font-family:Ubuntu;-inkscape-font-specification:Ubuntu;letter-spacing:0px;word-spacing:0px;fill:#000000;fill-opacity:1;stroke:none;stroke-width:1.44654107"
         id="path1366-90"
         inkscape:connector-curvature="0" />
      <path
         d="m 139.5038,479.72443 q 3.52956,0 6.1912,1.62013 2.7195,1.56226 4.45535,4.57107 1.79371,2.95094 2.66163,7.2327 0.92579,4.2239 0.92579,9.48931 0,5.32327 -0.92579,9.54717 -0.86792,4.2239 -2.66163,7.23271 -1.73585,2.95094 -4.45535,4.57107 -2.66164,1.56226 -6.1912,1.56226 -3.58742,0 -6.24905,-1.56226 -2.66164,-1.62013 -4.45535,-4.57107 -1.73585,-3.00881 -2.66164,-7.23271 -0.86792,-4.2239 -0.86792,-9.54717 0,-5.26541 0.86792,-9.48931 0.92579,-4.28176 2.66164,-7.2327 1.79371,-3.00881 4.45535,-4.57107 2.66163,-1.62013 6.24905,-1.62013 z m 0,41.08177 q 2.25661,0 3.87673,-1.15723 1.62013,-1.15724 2.66164,-3.29812 1.04151,-2.14088 1.5044,-5.14968 0.52076,-3.00881 0.63648,-6.76982 H 130.7667 q 0.0579,3.76101 0.57861,6.76982 0.52076,3.0088 1.56227,5.14968 1.04151,2.14088 2.66163,3.29812 1.62013,1.15723 3.93459,1.15723 z m 0,-36.33711 q -2.2566,0 -3.87673,1.09937 -1.56226,1.09937 -2.60377,3.12453 -1.04151,1.96729 -1.56227,4.86037 -0.52075,2.83522 -0.69433,6.36478 h 17.41635 q -0.11572,-3.52956 -0.69434,-6.36478 -0.52075,-2.89308 -1.56226,-4.86037 -1.04151,-2.02516 -2.66164,-3.12453 -1.56226,-1.09937 -3.76101,-1.09937 z"
         style="font-style:normal;font-variant:normal;font-weight:normal;font-stretch:normal;font-size:medium;line-height:1.25;font-family:Ubuntu;-inkscape-font-specification:Ubuntu;letter-spacing:0px;word-spacing:0px;fill:#000000;fill-opacity:1;stroke:none;stroke-width:1.44654107"
         id="path1368-9"
         inkscape:connector-curvature="0" />
      <path
         d="m 170.37661,535.32947 h -13.01887 v -4.2239 h 7.9849 V 483.5433 h -7.9849 v -4.2239 h 13.01887 z"
         style="font-style:normal;font-variant:normal;font-weight:normal;font-stretch:normal;font-size:medium;line-height:1.25;font-family:Ubuntu;-inkscape-font-specification:Ubuntu;letter-spacing:0px;word-spacing:0px;fill:#000000;fill-opacity:1;stroke:none;stroke-width:1.44654107"
         id="path1370-1"
         inkscape:connector-curvature="0" />
    </g>
  </g>
</svg>
